<!DOCTYPE svg PUBLIC "-//W3C//DTD SVG 1.1//EN" "http://www.w3.org/Graphics/SVG/1.1/DTD/svg11.dtd">
<!-- Uploaded to: SVG Repo, www.svgrepo.com, Transformed by: SVG Repo Mixer Tools -->
<svg fill="#ffffff" height="800px" width="800px" version="1.1" id="Layer_1" xmlns="http://www.w3.org/2000/svg" xmlns:xlink="http://www.w3.org/1999/xlink" viewBox="0 0 512 512" xml:space="preserve" stroke="#ffffff">
<g id="SVGRepo_bgCarrier" stroke-width="0"/>
<g id="SVGRepo_tracerCarrier" stroke-linecap="round" stroke-linejoin="round"/>
<g id="SVGRepo_iconCarrier"> <g> <g> <path d="M398.823,178.85v-24.196c19.855-1.807,35.462-18.539,35.462-38.855V98.791c0-21.52-17.506-39.027-39.027-39.027h-91.526 c0.788-3.511,1.207-7.132,1.207-10.824C304.94,21.954,282.985,0,255.999,0s-48.942,21.954-48.942,48.94 c0,3.692,0.419,7.313,1.207,10.824h-91.526c-21.52,0-39.026,17.506-39.026,39.027v17.008c0,20.317,15.609,37.049,35.464,38.855 v23.935c-27.006,6.421-47.16,30.84-47.16,59.898v230.522c0,23.705,19.286,42.991,42.993,42.991h293.984 c23.706,0,42.993-19.286,42.993-42.991V238.487C445.983,209.556,425.83,185.241,398.823,178.85z M255.999,28.235 c11.418,0,20.706,9.288,20.706,20.705c0,3.887-1.062,7.601-3.049,10.824h-35.314c-1.988-3.223-3.049-6.937-3.049-10.824 C235.292,37.523,244.582,28.235,255.999,28.235z M105.947,115.797V98.791c0-5.951,4.841-10.792,10.79-10.792h114.97h48.583h114.97 c5.951,0,10.792,4.841,10.792,10.792v17.008c0,5.949-4.841,10.79-10.792,10.79h-10.556H127.292h-10.554 C110.787,126.588,105.947,121.747,105.947,115.797z M417.748,469.009c0,8.137-6.62,14.756-14.757,14.756H109.007 c-8.137,0-14.757-6.618-14.757-14.756V238.487c0-18.367,14.824-33.311,33.042-33.311h157.683c7.796,0,14.118-6.322,14.118-14.118 s-6.322-14.118-14.118-14.118H141.41v-22.118h229.178v36.503c0,7.796,6.322,14.118,14.118,14.118 c18.219,0,33.042,14.824,33.042,33.042V469.009z"/> </g> </g> <g> <g> <path d="M341.169,188.306c-0.182-0.902-0.452-1.793-0.805-2.64c-0.353-0.861-0.791-1.679-1.299-2.441 c-0.508-0.778-1.101-1.498-1.751-2.147s-1.382-1.242-2.146-1.751c-0.776-0.522-1.595-0.946-2.442-1.299 c-0.847-0.353-1.735-0.635-2.64-0.819c-1.821-0.367-3.699-0.367-5.52,0c-0.904,0.184-1.793,0.466-2.639,0.819 c-0.848,0.353-1.667,0.776-2.442,1.299c-0.762,0.508-1.482,1.101-2.132,1.751c-0.664,0.649-1.242,1.369-1.765,2.147 c-0.508,0.762-0.946,1.58-1.299,2.441c-0.353,0.848-0.621,1.736-0.805,2.64c-0.184,0.904-0.282,1.835-0.282,2.753 c0,0.916,0.099,1.849,0.282,2.753c0.182,0.904,0.452,1.793,0.805,2.639c0.353,0.861,0.791,1.68,1.299,2.442 c0.522,0.776,1.101,1.496,1.765,2.146c0.649,0.651,1.369,1.244,2.132,1.751c0.776,0.508,1.595,0.946,2.442,1.299 c0.847,0.353,1.735,0.635,2.639,0.805c0.918,0.184,1.837,0.282,2.768,0.282c0.916,0,1.835-0.099,2.752-0.282 c0.905-0.169,1.794-0.452,2.64-0.805c0.848-0.353,1.667-0.791,2.442-1.299c0.762-0.507,1.497-1.1,2.146-1.751 c0.649-0.649,1.242-1.369,1.751-2.146c0.508-0.762,0.946-1.581,1.299-2.442c0.353-0.847,0.621-1.735,0.805-2.639 c0.184-0.905,0.267-1.837,0.267-2.753C341.436,190.141,341.351,189.208,341.169,188.306z"/> </g> </g> <g> <g> <path d="M349.853,269.945c-41.615-51.753-117.573-59.999-169.322-18.385c-51.75,41.615-59.997,117.571-18.384,169.322 c20.157,25.069,48.873,40.787,80.852,44.26c4.427,0.48,8.841,0.719,13.231,0.719c27.323,0,53.639-9.226,75.237-26.595 c25.069-20.157,40.787-48.871,44.26-80.852C379.201,326.433,370.011,295.014,349.853,269.945z M166.442,353.659 c-3.769-4.688-3.023-11.569,1.666-15.34c2.012-1.618,4.426-2.403,6.826-2.403c3.193,0,6.361,1.391,8.514,4.069 c3.769,4.689,3.023,11.569-1.666,15.34C177.093,359.091,170.213,358.349,166.442,353.659z M313.772,417.261 c-19.192,15.433-43.238,22.467-67.727,19.808c-24.482-2.658-46.464-14.691-61.896-33.882c-4.379-5.447-8.012-11.253-10.961-17.284 c0.597,0.027,1.196,0.049,1.794,0.049c8.61,0,17.276-2.821,24.493-8.623c16.823-13.526,19.504-38.215,5.976-55.038 c-8.408-10.456-21.128-15.443-33.593-14.476c5.763-12.954,14.576-24.771,26.366-34.251c16.999-13.669,37.402-20.308,57.683-20.308 c26.987,0,53.752,11.764,71.939,34.382c4.018,4.996,7.451,10.327,10.307,15.905c-1.525-0.375-3.082-0.659-4.669-0.831 c-9.342-1.018-18.515,1.672-25.835,7.557c-7.321,5.887-11.912,14.272-12.925,23.613c-1.015,9.339,1.67,18.514,7.557,25.834 c5.886,7.323,14.27,11.912,23.612,12.926c1.292,0.141,2.581,0.209,3.863,0.209c5.345,0,10.546-1.235,15.301-3.558 C340.05,388.122,329.241,404.821,313.772,417.261z M336.584,338.425c-0.116,1.066-0.601,3.089-2.55,4.656 c-1.948,1.567-4.029,1.598-5.094,1.491c-1.066-0.116-3.089-0.601-4.655-2.55c-1.566-1.948-1.607-4.029-1.491-5.094 c0.116-1.067,0.601-3.089,2.55-4.656c1.56-1.256,3.206-1.53,4.347-1.53c0.282,0,0.535,0.018,0.747,0.04 c1.066,0.116,3.089,0.601,4.655,2.548c0,0.001,0,0.001,0,0.001C336.66,335.278,336.699,337.357,336.584,338.425z"/> </g> </g> <g> <g> <path d="M277.126,277.199c0-0.001,0-0.001,0-0.001c-5.887-7.321-14.272-11.911-23.612-12.925 c-9.343-1.018-18.515,1.67-25.835,7.557c-7.321,5.886-11.912,14.27-12.926,23.612c-1.014,9.339,1.67,18.514,7.557,25.835 c5.887,7.32,14.273,11.91,23.612,12.925c1.293,0.141,2.582,0.209,3.864,0.209c7.979,0,15.664-2.694,21.97-7.765 c7.323-5.887,11.912-14.272,12.928-23.613C285.697,293.696,283.013,284.521,277.126,277.199z M256.611,299.986 c-0.116,1.066-0.6,3.089-2.55,4.655c-1.947,1.564-4.028,1.601-5.092,1.491c-1.066-0.116-3.089-0.601-4.656-2.55 s-1.605-4.026-1.489-5.094c0.116-1.066,0.6-3.089,2.548-4.655c1.56-1.255,3.206-1.53,4.348-1.53c0.282,0,0.534,0.018,0.745,0.04 c1.066,0.116,3.089,0.601,4.656,2.548C256.688,296.84,256.727,298.921,256.611,299.986z"/> </g> </g> <g> <g> <path d="M290.864,360.486c-13.395-16.653-37.844-19.312-54.501-5.917c-16.657,13.395-19.312,37.844-5.917,54.5 c7.648,9.511,18.899,14.456,30.247,14.456c8.526,0,17.108-2.794,24.254-8.54C301.604,401.591,304.258,377.142,290.864,360.486z M267.25,392.984c-4.523,3.637-11.164,2.918-14.802-1.608c-3.638-4.523-2.917-11.164,1.607-14.802 c1.941-1.56,4.272-2.32,6.589-2.32c3.082,0,6.138,1.343,8.215,3.926C272.496,382.705,271.777,389.346,267.25,392.984z"/> </g> </g> </g>
</svg>