<!DOCTYPE svg PUBLIC "-//W3C//DTD SVG 1.1//EN" "http://www.w3.org/Graphics/SVG/1.1/DTD/svg11.dtd">
<!-- Uploaded to: SVG Repo, www.svgrepo.com, Transformed by: SVG Repo Mixer Tools -->
<svg fill="#000000" width="800px" height="800px" viewBox="0 0 24 24" id="left-alt" data-name="Line Color" xmlns="http://www.w3.org/2000/svg" class="icon line-color">

<g id="SVGRepo_bgCarrier" stroke-width="0"/>

<g id="SVGRepo_tracerCarrier" stroke-linecap="round" stroke-linejoin="round"/>

<g id="SVGRepo_iconCarrier">

<path id="secondary" d="M11.87,9.13h8a1,1,0,0,1,1,1v4a1,1,0,0,1-1,1h-8" style="fill: none; stroke: #8b08f7; stroke-linecap: round; stroke-linejoin: round; stroke-width: 2;"/>

<path id="primary" d="M11.87,15.13l1.47,2.22a1,1,0,0,1-.23,1.35l-2.46,1.84a1,1,0,0,1-1.39-.18L3.34,12.75a1,1,0,0,1,0-1.23L9.26,3.91a1,1,0,0,1,1.39-.19l2.46,1.85a1,1,0,0,1,.23,1.35L11.87,9.13" style="fill: none; stroke: #000000; stroke-linecap: round; stroke-linejoin: round; stroke-width: 2;"/>

</g>

</svg>