<!DOCTYPE svg PUBLIC "-//W3C//DTD SVG 1.1//EN" "http://www.w3.org/Graphics/SVG/1.1/DTD/svg11.dtd">
<!-- Uploaded to: SVG Repo, www.svgrepo.com, Transformed by: SVG Repo Mixer Tools -->
<svg fill="#FFFFFF" width="800px" height="800px" viewBox="0 0 24 24" xmlns="http://www.w3.org/2000/svg" stroke="#FFFFFF">
<g id="SVGRepo_bgCarrier" stroke-width="0"/>
<g id="SVGRepo_tracerCarrier" stroke-linecap="round" stroke-linejoin="round"/>
<g id="SVGRepo_iconCarrier">
<path d="M21.92,2.62a1,1,0,0,0-.54-.54A1,1,0,0,0,21,2H17a1,1,0,0,0,0,2h1.59L12,10.59,9.88,8.46A1,1,0,0,0,8.46,9.88L10.59,12,4,18.59V17a1,1,0,0,0-2,0v4a1,1,0,0,0,.08.38,1,1,0,0,0,.54.54A1,1,0,0,0,3,22H7a1,1,0,0,0,0-2H5.41L12,13.41l2.12,2.13a1,1,0,0,0,.71.29,1,1,0,0,0,.71-.29,1,1,0,0,0,0-1.42L13.41,12,20,5.41V7a1,1,0,0,0,2,0V3A1,1,0,0,0,21.92,2.62Z"/>
</g>
</svg>